<svg width="32" height="32" viewBox="0 0 32 32" fill="none" xmlns="http://www.w3.org/2000/svg">
<path d="M10.7137 30.8599C18.4779 33.9144 28.735 30.5733 32 23.9143C26.7617 27.4553 21.2409 28.0747 15.6329 24.857C10.6971 22.0249 8.35962 17.6568 9.08247 12.3471C10.0023 5.58996 14.5971 1.84387 21.761 0.631622C15.122 -1.31954 4.99631 1.06805 1.11594 10.3466C-1.88266 17.5179 1.11086 27.0816 10.7137 30.8599Z" fill="#B52931"/>
<path d="M20.7939 6.80494L23.0261 8.81542L22.5116 11.7505C22.4327 12.2007 22.7342 12.4199 23.1849 12.24L25.9495 11.1368L28.7141 12.24C29.1648 12.4199 29.4495 12.2036 29.3502 11.7567L28.6954 8.81525L31.0871 6.78667C31.4494 6.47939 31.3522 6.16376 30.8697 6.08184L27.8501 5.56922L26.3736 3.0404C26.1395 2.63953 25.76 2.63953 25.5259 3.0404L24.0495 5.56922L21.0295 6.08208C20.5471 6.16387 20.4416 6.48738 20.7939 6.80494Z" fill="#B52931"/>
<path d="M25.659 18.8869L23.4859 18.5182L22.4232 16.6982C22.2547 16.4098 21.9817 16.4098 21.8132 16.6982L20.7505 18.5182L18.5777 18.8869C18.2305 18.9458 18.1546 19.1787 18.4081 19.4072L20.0145 20.854L19.6443 22.9663C19.5874 23.2903 19.8043 23.448 20.1288 23.3186L22.1182 22.5248L24.1076 23.3186C24.4321 23.448 24.637 23.2924 24.5653 22.9708L24.0941 20.854L25.8152 19.3943C26.0764 19.1728 26.0062 18.9458 25.659 18.8869Z" fill="#B52931"/>
</svg>
