<svg width="32" height="32" viewBox="0 0 32 32" fill="none" xmlns="http://www.w3.org/2000/svg">
<path d="M16 7.98486C11.5805 7.98486 7.98514 11.581 7.98514 16.0005C7.98514 20.4199 11.5805 24.016 16 24.016C20.4188 24.016 24.0149 20.4206 24.0149 16.0005C24.0149 11.5803 20.4188 7.98486 16 7.98486Z" fill="#F9D078"/>
<path d="M16 5.62905C15.1362 5.62905 14.4362 4.92896 14.4362 4.0659V1.56386C14.4362 0.700089 15.1362 0 16 0C16.8638 0 17.5639 0.700089 17.5639 1.56386V4.0659C17.5639 4.92896 16.8631 5.62905 16 5.62905Z" fill="#F9D078"/>
<path d="M16 26.3701C15.1362 26.3701 14.4362 27.0702 14.4362 27.934V30.4353C14.4362 31.2998 15.1362 31.9999 16 31.9999C16.8638 31.9999 17.5639 31.2998 17.5639 30.4353V27.934C17.5639 27.0702 16.8631 26.3701 16 26.3701Z" fill="#F9D078"/>
<path d="M23.3325 8.66696C22.7224 8.05615 22.7224 7.06625 23.3325 6.45544L25.1019 4.68609C25.712 4.07599 26.7026 4.07599 27.3134 4.68609C27.9242 5.29689 27.9242 6.28751 27.3134 6.8976L25.544 8.66696C24.9339 9.27776 23.944 9.27776 23.3325 8.66696Z" fill="#F9D078"/>
<path d="M8.6668 23.3341C8.05599 22.7226 7.06609 22.7226 6.45528 23.3341L4.68593 25.1028C4.07583 25.7129 4.07512 26.7042 4.68593 27.3143C5.29673 27.9244 6.28734 27.9244 6.89744 27.3143L8.6668 25.5442C9.2776 24.9341 9.2776 23.9435 8.6668 23.3341Z" fill="#F9D078"/>
<path d="M26.3702 15.9999C26.3702 15.1361 27.0703 14.436 27.9341 14.436H30.4361C31.2999 14.436 32 15.1361 32 15.9999C32 16.8637 31.2999 17.5631 30.4361 17.5631H27.9341C27.0703 17.5631 26.3702 16.8637 26.3702 15.9999Z" fill="#F9D078"/>
<path d="M5.62905 15.9999C5.62905 15.1361 4.92896 14.436 4.06519 14.436H1.56386C0.700089 14.436 0 15.1361 0 15.9999C0 16.8637 0.700089 17.5631 1.56386 17.5631H4.0659C4.92896 17.5631 5.62905 16.8637 5.62905 15.9999Z" fill="#F9D078"/>
<path d="M23.3325 23.334C23.9433 22.7239 24.9339 22.7239 25.544 23.334L27.3134 25.1034C27.9242 25.7128 27.9242 26.7041 27.3134 27.3142C26.7026 27.9243 25.7127 27.9243 25.1018 27.3142L23.3325 25.5448C22.7217 24.934 22.7217 23.9441 23.3325 23.334Z" fill="#F9D078"/>
<path d="M8.66679 8.66678C9.27759 8.05597 9.27759 7.06607 8.66679 6.45526L6.89743 4.68662C6.28663 4.07581 5.29672 4.07581 4.68592 4.68662C4.07511 5.29672 4.07511 6.28733 4.68592 6.89743L6.45527 8.66678C7.06608 9.27829 8.05598 9.27829 8.66679 8.66678Z" fill="#F9D078"/>
</svg>
