<svg width="24" height="24" viewBox="0 0 24 24" fill="none" xmlns="http://www.w3.org/2000/svg">
<path d="M23.6405 24H0.359491C0.264148 24 0.17271 23.9428 0.105293 23.8409C0.0378749 23.7391 0 23.601 0 23.457V15.5453C0 15.4013 0.0378749 15.2632 0.105293 15.1614C0.17271 15.0595 0.264148 15.0023 0.359491 15.0023C0.454834 15.0023 0.546273 15.0595 0.61369 15.1614C0.681108 15.2632 0.718983 15.4013 0.718983 15.5453V22.914H23.281V15.5453C23.281 15.4013 23.3189 15.2632 23.3863 15.1614C23.4537 15.0595 23.5452 15.0023 23.6405 15.0023C23.7359 15.0023 23.8273 15.0595 23.8947 15.1614C23.9621 15.2632 24 15.4013 24 15.5453V23.457C24 23.601 23.9621 23.7391 23.8947 23.8409C23.8273 23.9428 23.7359 24 23.6405 24Z" fill="#B52931"/>
<path d="M12 17.2122C11.8453 17.2122 11.6969 17.1813 11.5875 17.1263C11.4781 17.0713 11.4167 16.9967 11.4167 16.919V0.299508C11.4167 0.221725 11.4781 0.147127 11.5875 0.0921261C11.6969 0.0371249 11.8453 0.00622559 12 0.00622559C12.1547 0.00622559 12.3031 0.0371249 12.4125 0.0921261C12.5219 0.147127 12.5833 0.221725 12.5833 0.299508V16.919C12.5833 16.9967 12.5219 17.0713 12.4125 17.1263C12.3031 17.1813 12.1547 17.2122 12 17.2122Z" fill="#B52931"/>
<path d="M19.9677 8.63258C19.8148 8.63255 19.6682 8.575 19.5601 8.47258L12 1.31174L4.43935 8.47258C4.33061 8.57206 4.18496 8.6271 4.03379 8.62585C3.88261 8.62461 3.738 8.56718 3.6311 8.46593C3.52419 8.36468 3.46355 8.22771 3.46224 8.08453C3.46093 7.94135 3.51904 7.80341 3.62407 7.70041L11.5918 0.153485C11.7021 0.0549086 11.848 0 11.9997 0C12.1514 0 12.2973 0.0549086 12.4076 0.153485L20.3754 7.70041C20.456 7.77678 20.5109 7.87408 20.5331 7.97999C20.5553 8.08591 20.5439 8.19569 20.5003 8.29546C20.4567 8.39523 20.3828 8.48051 20.288 8.54051C20.1932 8.60052 20.0817 8.63256 19.9677 8.63258Z" fill="#B52931"/>
</svg>
