<svg width="36" height="36" viewBox="0 0 36 36" fill="none" xmlns="http://www.w3.org/2000/svg">
<circle cx="18" cy="17.6484" r="13.6406" fill="#383838"/>
<path d="M15.291 18.0536C15.4916 17.0536 15.7324 16.1072 16.0134 15.2143C16.2943 14.2857 16.5953 13.4643 16.9164 12.75C17.2374 11.8929 17.5986 11.1071 18 10.3929C18.4014 11.1071 18.7826 11.8929 19.1438 12.75C19.4649 13.4643 19.7659 14.2857 20.0468 15.2143C20.3278 16.1072 20.5686 17.0536 20.7692 18.0536C20.5686 19.0536 20.3278 20.0179 20.0468 20.9464C19.7659 21.8393 19.4649 22.6429 19.1438 23.3571C18.7826 24.1785 18.4014 24.9464 18 25.6607C17.5986 24.9464 17.2374 24.1785 16.9164 23.3571C16.5953 22.6429 16.2943 21.8393 16.0134 20.9464C15.7324 20.0179 15.4916 19.0536 15.291 18.0536ZM20.2876 2.73214C22.6555 3.01786 24.7425 3.69643 26.5485 4.76786C28.3947 5.80355 29.9599 7.05359 31.2441 8.51786C32.5686 9.94645 33.612 11.5 34.3746 13.1786C35.1772 14.8571 35.719 16.4822 36 18.0536C35.719 19.625 35.1772 21.25 34.3746 22.9286C33.612 24.6071 32.5686 26.1786 31.2441 27.6428C29.9197 29.0714 28.3345 30.3036 26.4883 31.3393C24.6823 32.375 22.5953 33.0357 20.2274 33.3214L18 36L15.7726 33.3214C13.4448 33.0357 11.3579 32.375 9.5117 31.3393C7.66553 30.3036 6.08027 29.0714 4.75585 27.6428C3.43144 26.1786 2.36789 24.6071 1.56522 22.9286C0.802673 21.25 0.280937 19.625 0 18.0536C0.280937 16.4822 0.802673 14.8571 1.56522 13.1786C2.36789 11.5 3.41137 9.94645 4.69565 8.51786C6.02007 7.05359 7.60533 5.80355 9.4515 4.76786C11.2977 3.69643 13.3846 3.01786 15.7124 2.73214L18 0L20.2876 2.73214ZM30.0401 18.0536L28.4147 16.7143C28.2943 15.4286 27.9733 14.2143 27.4515 13.0714C26.9297 11.9286 26.2274 10.9107 25.3445 10.0179C24.4615 9.12498 23.398 8.42855 22.1538 7.92857C20.9498 7.39286 19.5652 7.125 18 7.125C16.4348 7.125 15.0502 7.39286 13.8462 7.92857C12.6421 8.42855 11.5987 9.10714 10.7157 9.96428C9.87291 10.8214 9.19066 11.8214 8.66889 12.9643C8.18729 14.1071 7.88629 15.3214 7.76589 16.6071L5.95987 18.0536L7.76589 19.2857C7.88629 20.5714 8.18729 21.8036 8.66889 22.9821C9.19066 24.125 9.87291 25.1428 10.7157 26.0357C11.5987 26.9286 12.6421 27.6428 13.8462 28.1786C15.0502 28.6785 16.4348 28.9286 18 28.9286C19.5652 28.9286 20.9498 28.6607 22.1538 28.125C23.398 27.5893 24.4615 26.875 25.3445 25.9821C26.2274 25.0893 26.9297 24.0536 27.4515 22.875C27.9733 21.6964 28.2943 20.4643 28.4147 19.1786L30.0401 18.0536Z" fill="#B52931"/>
<path d="M15.2578 17.9967C15.4585 16.9966 15.6993 16.0502 15.9802 15.1574C16.2612 14.2288 16.5622 13.4073 16.8832 12.6931C17.2043 11.8359 17.5655 11.0502 17.9668 10.3359C18.3682 11.0502 18.7494 11.8359 19.1107 12.6931C19.4317 13.4073 19.7327 14.2288 20.0137 15.1574C20.2946 16.0502 20.5354 16.9966 20.7361 17.9967C20.5354 18.9967 20.2946 19.961 20.0137 20.8895C19.7327 21.7824 19.4317 22.586 19.1107 23.3002C18.7494 24.1216 18.3682 24.8895 17.9668 25.6038C17.5655 24.8895 17.2043 24.1216 16.8832 23.3002C16.5622 22.586 16.2612 21.7824 15.9802 20.8895C15.6993 19.961 15.4585 18.9967 15.2578 17.9967Z" fill="#B52931"/>
</svg>
